<mxfile host="Electron" agent="Mozilla/5.0 (Windows NT 10.0; Win64; x64) AppleWebKit/537.36 (KHTML, like Gecko) draw.io/24.7.5 Chrome/126.0.6478.183 Electron/31.3.0 Safari/537.36" version="24.7.5">
  <diagram name="PÃ¡gina-1" id="38VDPHFlhEI35JtrQZ7C">
    <mxGraphModel dx="2035" dy="835" grid="1" gridSize="10" guides="1" tooltips="1" connect="1" arrows="1" fold="1" page="1" pageScale="1" pageWidth="1169" pageHeight="827" math="0" shadow="0">
      <root>
        <mxCell id="0" />
        <mxCell id="1" parent="0" />
        <mxCell id="FKMWiiDx7Euz6Agw9dDS-28" value="1" style="ellipse;whiteSpace=wrap;html=1;aspect=fixed;fillColor=#ffcccc;strokeColor=#36393d;" parent="1" vertex="1">
          <mxGeometry x="-50" y="735" width="70" height="70" as="geometry" />
        </mxCell>
        <mxCell id="5kxzR4jJ3TfGidrq8OG2-36" style="rounded=0;orthogonalLoop=1;jettySize=auto;html=1;exitX=0.5;exitY=1;exitDx=0;exitDy=0;entryX=0.5;entryY=0;entryDx=0;entryDy=0;" edge="1" parent="1" source="FKMWiiDx7Euz6Agw9dDS-30" target="5kxzR4jJ3TfGidrq8OG2-20">
          <mxGeometry relative="1" as="geometry" />
        </mxCell>
        <mxCell id="5kxzR4jJ3TfGidrq8OG2-38" value="&lt;div&gt;B&lt;/div&gt;&lt;div&gt;&lt;br&gt;&lt;/div&gt;&lt;div&gt;3&lt;/div&gt;" style="edgeLabel;html=1;align=center;verticalAlign=middle;resizable=0;points=[];" vertex="1" connectable="0" parent="5kxzR4jJ3TfGidrq8OG2-36">
          <mxGeometry x="-0.228" y="-2" relative="1" as="geometry">
            <mxPoint as="offset" />
          </mxGeometry>
        </mxCell>
        <mxCell id="5kxzR4jJ3TfGidrq8OG2-40" style="rounded=0;orthogonalLoop=1;jettySize=auto;html=1;exitX=1;exitY=1;exitDx=0;exitDy=0;entryX=0;entryY=1;entryDx=0;entryDy=0;" edge="1" parent="1" source="FKMWiiDx7Euz6Agw9dDS-30" target="5kxzR4jJ3TfGidrq8OG2-23">
          <mxGeometry relative="1" as="geometry" />
        </mxCell>
        <mxCell id="5kxzR4jJ3TfGidrq8OG2-41" value="&lt;div&gt;B&lt;/div&gt;&lt;div&gt;&lt;br&gt;&lt;/div&gt;&lt;div&gt;3&lt;/div&gt;" style="edgeLabel;html=1;align=center;verticalAlign=middle;resizable=0;points=[];" vertex="1" connectable="0" parent="5kxzR4jJ3TfGidrq8OG2-40">
          <mxGeometry x="-0.1874" y="-2" relative="1" as="geometry">
            <mxPoint as="offset" />
          </mxGeometry>
        </mxCell>
        <mxCell id="FKMWiiDx7Euz6Agw9dDS-30" value="2" style="ellipse;whiteSpace=wrap;html=1;aspect=fixed;" parent="1" vertex="1">
          <mxGeometry x="120" y="560" width="70" height="70" as="geometry" />
        </mxCell>
        <mxCell id="FKMWiiDx7Euz6Agw9dDS-31" value="3" style="ellipse;whiteSpace=wrap;html=1;aspect=fixed;fillColor=#ffcccc;strokeColor=#36393d;" parent="1" vertex="1">
          <mxGeometry x="100" y="825" width="70" height="70" as="geometry" />
        </mxCell>
        <mxCell id="FKMWiiDx7Euz6Agw9dDS-32" value="" style="endArrow=classic;html=1;rounded=0;exitX=1;exitY=0;exitDx=0;exitDy=0;entryX=0;entryY=0.5;entryDx=0;entryDy=0;" parent="1" source="FKMWiiDx7Euz6Agw9dDS-28" edge="1" target="FKMWiiDx7Euz6Agw9dDS-30">
          <mxGeometry width="50" height="50" relative="1" as="geometry">
            <mxPoint x="70" y="775" as="sourcePoint" />
            <mxPoint x="150" y="780" as="targetPoint" />
          </mxGeometry>
        </mxCell>
        <mxCell id="FKMWiiDx7Euz6Agw9dDS-34" value="&lt;div&gt;A&lt;/div&gt;&lt;div&gt;&lt;br&gt;&lt;/div&gt;&lt;div&gt;3&lt;/div&gt;" style="edgeLabel;html=1;align=center;verticalAlign=middle;resizable=0;points=[];" parent="FKMWiiDx7Euz6Agw9dDS-32" vertex="1" connectable="0">
          <mxGeometry x="0.0222" relative="1" as="geometry">
            <mxPoint x="-6" y="7" as="offset" />
          </mxGeometry>
        </mxCell>
        <mxCell id="FKMWiiDx7Euz6Agw9dDS-36" value="" style="endArrow=classic;html=1;rounded=0;exitX=1;exitY=0.5;exitDx=0;exitDy=0;entryX=0.5;entryY=0;entryDx=0;entryDy=0;" parent="1" source="FKMWiiDx7Euz6Agw9dDS-30" edge="1" target="5kxzR4jJ3TfGidrq8OG2-23">
          <mxGeometry width="50" height="50" relative="1" as="geometry">
            <mxPoint x="220" y="779.5" as="sourcePoint" />
            <mxPoint x="530.0000000000059" y="595" as="targetPoint" />
          </mxGeometry>
        </mxCell>
        <mxCell id="FKMWiiDx7Euz6Agw9dDS-37" value="&lt;div&gt;B&lt;/div&gt;&lt;div&gt;&lt;br&gt;&lt;/div&gt;&lt;div&gt;3&lt;/div&gt;" style="edgeLabel;html=1;align=center;verticalAlign=middle;resizable=0;points=[];" parent="FKMWiiDx7Euz6Agw9dDS-36" vertex="1" connectable="0">
          <mxGeometry x="0.0222" relative="1" as="geometry">
            <mxPoint as="offset" />
          </mxGeometry>
        </mxCell>
        <mxCell id="FKMWiiDx7Euz6Agw9dDS-39" value="" style="endArrow=classic;html=1;rounded=0;exitX=1;exitY=0.5;exitDx=0;exitDy=0;" parent="1" edge="1" source="FKMWiiDx7Euz6Agw9dDS-31">
          <mxGeometry width="50" height="50" relative="1" as="geometry">
            <mxPoint x="140" y="919.58" as="sourcePoint" />
            <mxPoint x="280" y="860" as="targetPoint" />
          </mxGeometry>
        </mxCell>
        <mxCell id="FKMWiiDx7Euz6Agw9dDS-40" value="&lt;div&gt;C&lt;/div&gt;&lt;div&gt;&lt;br&gt;&lt;/div&gt;&lt;div&gt;20&lt;/div&gt;" style="edgeLabel;html=1;align=center;verticalAlign=middle;resizable=0;points=[];" parent="FKMWiiDx7Euz6Agw9dDS-39" vertex="1" connectable="0">
          <mxGeometry x="0.0222" relative="1" as="geometry">
            <mxPoint as="offset" />
          </mxGeometry>
        </mxCell>
        <mxCell id="FKMWiiDx7Euz6Agw9dDS-53" style="rounded=0;orthogonalLoop=1;jettySize=auto;html=1;exitX=1;exitY=1;exitDx=0;exitDy=0;entryX=0;entryY=0.371;entryDx=0;entryDy=0;entryPerimeter=0;" parent="1" source="FKMWiiDx7Euz6Agw9dDS-28" target="FKMWiiDx7Euz6Agw9dDS-31" edge="1">
          <mxGeometry relative="1" as="geometry" />
        </mxCell>
        <mxCell id="5kxzR4jJ3TfGidrq8OG2-12" value="4" style="ellipse;whiteSpace=wrap;html=1;aspect=fixed;fillColor=#ffcccc;strokeColor=#36393d;" vertex="1" parent="1">
          <mxGeometry x="280" y="825" width="70" height="70" as="geometry" />
        </mxCell>
        <mxCell id="5kxzR4jJ3TfGidrq8OG2-13" value="A&lt;div&gt;&lt;br&gt;&lt;/div&gt;&lt;div&gt;3&lt;/div&gt;" style="text;html=1;align=center;verticalAlign=middle;resizable=0;points=[];autosize=1;strokeColor=none;fillColor=none;" vertex="1" parent="1">
          <mxGeometry x="45" y="800" width="30" height="60" as="geometry" />
        </mxCell>
        <mxCell id="5kxzR4jJ3TfGidrq8OG2-17" value="" style="endArrow=classic;html=1;rounded=0;exitX=1;exitY=0.5;exitDx=0;exitDy=0;entryX=0;entryY=0.5;entryDx=0;entryDy=0;" edge="1" parent="1" target="5kxzR4jJ3TfGidrq8OG2-20">
          <mxGeometry width="50" height="50" relative="1" as="geometry">
            <mxPoint x="350" y="859.58" as="sourcePoint" />
            <mxPoint x="430" y="859.58" as="targetPoint" />
          </mxGeometry>
        </mxCell>
        <mxCell id="5kxzR4jJ3TfGidrq8OG2-18" value="D&lt;div&gt;&lt;br&gt;&lt;/div&gt;&lt;div&gt;1&lt;/div&gt;" style="edgeLabel;html=1;align=center;verticalAlign=middle;resizable=0;points=[];" vertex="1" connectable="0" parent="5kxzR4jJ3TfGidrq8OG2-17">
          <mxGeometry x="0.0222" relative="1" as="geometry">
            <mxPoint as="offset" />
          </mxGeometry>
        </mxCell>
        <mxCell id="5kxzR4jJ3TfGidrq8OG2-32" style="rounded=0;orthogonalLoop=1;jettySize=auto;html=1;exitX=0;exitY=0;exitDx=0;exitDy=0;entryX=1;entryY=0;entryDx=0;entryDy=0;" edge="1" parent="1" source="5kxzR4jJ3TfGidrq8OG2-20" target="FKMWiiDx7Euz6Agw9dDS-28">
          <mxGeometry relative="1" as="geometry" />
        </mxCell>
        <mxCell id="5kxzR4jJ3TfGidrq8OG2-34" value="E&lt;div&gt;&lt;br&gt;&lt;/div&gt;&lt;div&gt;5&lt;/div&gt;" style="edgeLabel;html=1;align=center;verticalAlign=middle;resizable=0;points=[];" vertex="1" connectable="0" parent="5kxzR4jJ3TfGidrq8OG2-32">
          <mxGeometry x="0.1264" y="1" relative="1" as="geometry">
            <mxPoint as="offset" />
          </mxGeometry>
        </mxCell>
        <mxCell id="5kxzR4jJ3TfGidrq8OG2-20" value="5" style="ellipse;whiteSpace=wrap;html=1;aspect=fixed;fillColor=#ffcccc;strokeColor=#36393d;" vertex="1" parent="1">
          <mxGeometry x="460" y="757" width="70" height="70" as="geometry" />
        </mxCell>
        <mxCell id="5kxzR4jJ3TfGidrq8OG2-21" value="" style="endArrow=classic;html=1;rounded=0;exitX=0.892;exitY=0.27;exitDx=0;exitDy=0;entryX=0.5;entryY=1;entryDx=0;entryDy=0;exitPerimeter=0;" edge="1" parent="1" source="5kxzR4jJ3TfGidrq8OG2-20" target="5kxzR4jJ3TfGidrq8OG2-23">
          <mxGeometry width="50" height="50" relative="1" as="geometry">
            <mxPoint x="500" y="859.58" as="sourcePoint" />
            <mxPoint x="580" y="859.58" as="targetPoint" />
          </mxGeometry>
        </mxCell>
        <mxCell id="5kxzR4jJ3TfGidrq8OG2-22" value="&lt;div&gt;E&lt;/div&gt;&lt;div&gt;&lt;br&gt;&lt;/div&gt;&lt;div&gt;5&lt;/div&gt;" style="edgeLabel;html=1;align=center;verticalAlign=middle;resizable=0;points=[];" vertex="1" connectable="0" parent="5kxzR4jJ3TfGidrq8OG2-21">
          <mxGeometry x="0.0222" relative="1" as="geometry">
            <mxPoint as="offset" />
          </mxGeometry>
        </mxCell>
        <mxCell id="5kxzR4jJ3TfGidrq8OG2-23" value="6" style="ellipse;whiteSpace=wrap;html=1;aspect=fixed;fillColor=#ffcccc;strokeColor=#36393d;" vertex="1" parent="1">
          <mxGeometry x="660" y="610" width="70" height="70" as="geometry" />
        </mxCell>
        <mxCell id="5kxzR4jJ3TfGidrq8OG2-24" value="" style="endArrow=classic;html=1;rounded=0;exitX=1;exitY=0.5;exitDx=0;exitDy=0;" edge="1" parent="1" source="5kxzR4jJ3TfGidrq8OG2-23">
          <mxGeometry width="50" height="50" relative="1" as="geometry">
            <mxPoint x="650" y="859.58" as="sourcePoint" />
            <mxPoint x="730" y="859.58" as="targetPoint" />
          </mxGeometry>
        </mxCell>
        <mxCell id="5kxzR4jJ3TfGidrq8OG2-25" value="&lt;div&gt;F&lt;/div&gt;&lt;div&gt;&lt;br&gt;&lt;/div&gt;&lt;div&gt;5&lt;/div&gt;" style="edgeLabel;html=1;align=center;verticalAlign=middle;resizable=0;points=[];" vertex="1" connectable="0" parent="5kxzR4jJ3TfGidrq8OG2-24">
          <mxGeometry x="0.0222" relative="1" as="geometry">
            <mxPoint as="offset" />
          </mxGeometry>
        </mxCell>
        <mxCell id="5kxzR4jJ3TfGidrq8OG2-26" value="7" style="ellipse;whiteSpace=wrap;html=1;aspect=fixed;fillColor=#ffcccc;strokeColor=#36393d;" vertex="1" parent="1">
          <mxGeometry x="730" y="825" width="70" height="70" as="geometry" />
        </mxCell>
        <mxCell id="5kxzR4jJ3TfGidrq8OG2-27" value="" style="endArrow=classic;html=1;rounded=0;exitX=1;exitY=0.5;exitDx=0;exitDy=0;" edge="1" parent="1">
          <mxGeometry width="50" height="50" relative="1" as="geometry">
            <mxPoint x="800" y="859.58" as="sourcePoint" />
            <mxPoint x="880" y="859.58" as="targetPoint" />
          </mxGeometry>
        </mxCell>
        <mxCell id="5kxzR4jJ3TfGidrq8OG2-28" value="&lt;div&gt;G&lt;/div&gt;&lt;div&gt;&lt;br&gt;&lt;/div&gt;&lt;div&gt;5&lt;/div&gt;" style="edgeLabel;html=1;align=center;verticalAlign=middle;resizable=0;points=[];" vertex="1" connectable="0" parent="5kxzR4jJ3TfGidrq8OG2-27">
          <mxGeometry x="0.0222" relative="1" as="geometry">
            <mxPoint as="offset" />
          </mxGeometry>
        </mxCell>
        <mxCell id="5kxzR4jJ3TfGidrq8OG2-30" value="" style="endArrow=classic;html=1;rounded=0;exitX=1;exitY=0.5;exitDx=0;exitDy=0;" edge="1" parent="1">
          <mxGeometry width="50" height="50" relative="1" as="geometry">
            <mxPoint x="950" y="859.41" as="sourcePoint" />
            <mxPoint x="1030" y="859.41" as="targetPoint" />
          </mxGeometry>
        </mxCell>
        <mxCell id="5kxzR4jJ3TfGidrq8OG2-31" value="&lt;div&gt;I&lt;/div&gt;&lt;div&gt;&lt;br&gt;&lt;/div&gt;&lt;div&gt;1&lt;/div&gt;" style="edgeLabel;html=1;align=center;verticalAlign=middle;resizable=0;points=[];" vertex="1" connectable="0" parent="5kxzR4jJ3TfGidrq8OG2-30">
          <mxGeometry x="0.0222" relative="1" as="geometry">
            <mxPoint as="offset" />
          </mxGeometry>
        </mxCell>
        <mxCell id="5kxzR4jJ3TfGidrq8OG2-43" value="8" style="ellipse;whiteSpace=wrap;html=1;aspect=fixed;fillColor=#ffcccc;strokeColor=#36393d;" vertex="1" parent="1">
          <mxGeometry x="880" y="825" width="70" height="70" as="geometry" />
        </mxCell>
        <mxCell id="5kxzR4jJ3TfGidrq8OG2-46" value="A3 + B3 + F5+ G5 + I1 = 17" style="text;html=1;align=center;verticalAlign=middle;resizable=0;points=[];autosize=1;strokeColor=none;fillColor=none;" vertex="1" parent="1">
          <mxGeometry x="20" y="1048" width="170" height="30" as="geometry" />
        </mxCell>
        <mxCell id="5kxzR4jJ3TfGidrq8OG2-47" value="A3 + B3 + F5 + G5 + I1 = 17" style="text;html=1;align=center;verticalAlign=middle;resizable=0;points=[];autosize=1;strokeColor=none;fillColor=none;" vertex="1" parent="1">
          <mxGeometry x="20" y="1078" width="170" height="30" as="geometry" />
        </mxCell>
        <mxCell id="5kxzR4jJ3TfGidrq8OG2-48" value="A3 + B3 + E5 + F5 + G5 + I1 = 22" style="text;html=1;align=center;verticalAlign=middle;resizable=0;points=[];autosize=1;strokeColor=none;fillColor=none;" vertex="1" parent="1">
          <mxGeometry x="20" y="1108" width="200" height="30" as="geometry" />
        </mxCell>
        <mxCell id="5kxzR4jJ3TfGidrq8OG2-49" value="A3 + E5 + A3 + B3 + F5 + G5 + I1 = 25" style="text;html=1;align=center;verticalAlign=middle;resizable=0;points=[];autosize=1;strokeColor=none;fillColor=none;" vertex="1" parent="1">
          <mxGeometry x="20" y="1138" width="230" height="30" as="geometry" />
        </mxCell>
        <mxCell id="5kxzR4jJ3TfGidrq8OG2-50" value="A3 + C20 + D1 + E5 + F5 + G5 +I1 = 40" style="text;html=1;align=center;verticalAlign=middle;resizable=0;points=[];autosize=1;strokeColor=none;fillColor=none;" vertex="1" parent="1">
          <mxGeometry x="20" y="1168" width="240" height="30" as="geometry" />
        </mxCell>
      </root>
    </mxGraphModel>
  </diagram>
</mxfile>
